<?xml version="1.0" encoding="UTF-8" standalone="no"?>
<!-- Created with Inkscape (http://www.inkscape.org/) -->

<svg
   xmlns:dc="http://purl.org/dc/elements/1.1/"
   xmlns:cc="http://creativecommons.org/ns#"
   xmlns:rdf="http://www.w3.org/1999/02/22-rdf-syntax-ns#"
   xmlns:svg="http://www.w3.org/2000/svg"
   xmlns="http://www.w3.org/2000/svg"
   xmlns:sodipodi="http://sodipodi.sourceforge.net/DTD/sodipodi-0.dtd"
   xmlns:inkscape="http://www.inkscape.org/namespaces/inkscape"
   width="12.5mm"
   height="12.5mm"
   viewBox="0 0 12.5 12.5"
   version="1.1"
   id="svg915"
   inkscape:version="0.92.4 (unknown)"
   sodipodi:docname="argoT.svg">
  <defs
     id="defs909" />
  <sodipodi:namedview
     id="base"
     pagecolor="#ffffff"
     bordercolor="#666666"
     borderopacity="1.0"
     inkscape:pageopacity="0.0"
     inkscape:pageshadow="2"
     inkscape:zoom="1.1176667"
     inkscape:cx="4.2857143"
     inkscape:cy="-111.42857"
     inkscape:document-units="mm"
     inkscape:current-layer="layer1"
     showgrid="false"
     inkscape:window-width="1366"
     inkscape:window-height="725"
     inkscape:window-x="0"
     inkscape:window-y="0"
     inkscape:window-maximized="1" />
  <metadata
     id="metadata912">
    <rdf:RDF>
      <cc:Work
         rdf:about="">
        <dc:format>image/svg+xml</dc:format>
        <dc:type
           rdf:resource="http://purl.org/dc/dcmitype/StillImage" />
        <dc:title />
      </cc:Work>
    </rdf:RDF>
  </metadata>
  <g
     inkscape:label="Layer 1"
     inkscape:groupmode="layer"
     id="layer1"
     transform="translate(-164.59524,-117.6369)">
    <path
       inkscape:connector-curvature="0"
       id="path874"
       style="font-style:normal;font-variant:normal;font-weight:normal;font-stretch:normal;font-size:medium;line-height:1.25;font-family:'Ancient Geek';-inkscape-font-specification:'Ancient Geek';letter-spacing:0px;word-spacing:0px;fill:#831216;fill-opacity:1;stroke:none;stroke-width:0.43955964"
       d="m 164.59524,129.3196 6.25001,-10.86541 6.24999,10.86541 z m 1.69874,-0.8013 h 8.10896 l -4.03846,-7.05127 z" />
    <path
       inkscape:connector-curvature="0"
       id="path876"
       style="font-style:normal;font-variant:normal;font-weight:normal;font-stretch:normal;font-size:medium;line-height:1.25;font-family:'Ancient Geek';-inkscape-font-specification:'Ancient Geek';letter-spacing:0px;word-spacing:0px;fill:#831216;fill-opacity:1;stroke:none;stroke-width:0.06164909"
       d="m 167.71732,127.87423 h -0.40457 v -0.0584 q 0.0809,0 0.11688,-0.0292 0.036,-0.0292 0.0629,-0.11463 l 0.44952,-1.3216 h 0.17981 l 0.44953,1.3216 q 0.0225,0.0719 0.0562,0.10789 0.0337,0.036 0.12362,0.036 v 0.0584 h -0.51696 v -0.0584 q 0.0899,0 0.11239,-0.036 0.0112,-0.018 0.0112,-0.045 0,-0.027 -0.0112,-0.0629 l -0.36861,-1.1283 -0.37311,1.1283 q -0.0146,0.0427 -0.0146,0.0719 0,0.0259 0.0124,0.0405 0.0247,0.0315 0.11463,0.0315 z" />
    <path
       inkscape:connector-curvature="0"
       id="path878"
       style="font-style:normal;font-variant:normal;font-weight:normal;font-stretch:normal;font-size:medium;line-height:1.25;font-family:'Ancient Geek';-inkscape-font-specification:'Ancient Geek';letter-spacing:0px;word-spacing:0px;fill:#831216;fill-opacity:1;stroke:none;stroke-width:0.06164909"
       d="m 170.26613,127.11453 q 0,-0.25623 0.14834,-0.49222 0.14834,-0.23601 0.43604,-0.27197 0.0483,-0.002 0.0899,-0.002 0.11351,0 0.17981,0.018 0.0899,0.0247 0.14385,0.0517 0.0236,0.0135 0.0393,0.0135 0.0101,0 0.0169,-0.007 0.0124,-0.0123 0.0124,-0.0494 0,-0.0112 -0.001,-0.0247 h 0.0719 l 0.11238,0.39559 h -0.0674 q -0.13486,-0.1978 -0.27196,-0.25399 -0.0922,-0.0382 -0.21465,-0.0382 -0.0596,0 -0.12474,0.009 -0.20229,0.0494 -0.2877,0.28769 -0.0652,0.18094 -0.0652,0.33603 0,0.0494 0.007,0.0955 0.0225,0.25623 0.11688,0.40907 0.0944,0.15283 0.31017,0.17082 0.20229,0 0.28095,-0.12812 0.0787,-0.12811 0.0787,-0.28545 0,-0.0495 -0.0292,-0.0697 -0.0292,-0.0202 -0.10564,-0.0202 v -0.0584 h 0.35962 v 0.67428 q -0.0629,0 -0.10563,-0.0337 -0.0427,-0.0337 -0.0607,-0.0966 -0.0809,0.0719 -0.19554,0.10339 -0.10002,0.027 -0.24612,0.0281 -0.0214,0 -0.0438,-0.001 -0.24724,0 -0.41581,-0.19554 -0.16857,-0.19555 -0.16857,-0.56416 z" />
    <path
       inkscape:connector-curvature="0"
       id="path880"
       style="font-style:normal;font-variant:normal;font-weight:normal;font-stretch:normal;font-size:medium;line-height:1.25;font-family:'Ancient Geek';-inkscape-font-specification:'Ancient Geek';letter-spacing:0px;word-spacing:0px;fill:#831216;fill-opacity:1;stroke:none;stroke-width:0.06164909"
       d="m 172.48678,126.35034 q 0.31354,0 0.5383,0.22364 0.22589,0.22364 0.22589,0.53156 0,0.30793 -0.22589,0.53831 -0.22476,0.23038 -0.5383,0.23038 -0.32141,0 -0.54056,-0.23038 -0.21914,-0.23038 -0.21914,-0.53831 0,-0.31803 0.21914,-0.53605 0.21915,-0.21915 0.54056,-0.21915 z m -0.045,0.11238 q -0.20228,0.0225 -0.35512,0.20454 -0.1371,0.16295 -0.1371,0.42817 0,0.0315 0.002,0.0641 0.0225,0.24723 0.17756,0.42255 0.15509,0.17531 0.40233,0.17981 0.24274,-0.018 0.3731,-0.1933 0.1225,-0.16407 0.1225,-0.45739 0,-0.0202 -0.001,-0.0416 -0.0225,-0.25173 -0.1843,-0.43379 -0.15397,-0.17307 -0.3776,-0.17307 -0.0112,0 -0.0225,0 z m -0.32365,0.42256 h 0.0584 q 0,0.0539 0.027,0.0832 0.027,0.0292 0.0854,0.0292 h 0.39558 q 0.0629,-0.004 0.0877,-0.0292 0.0247,-0.0247 0.0247,-0.0832 h 0.0584 v 0.44952 h -0.0584 q 0,-0.0495 -0.027,-0.0809 -0.027,-0.0315 -0.0854,-0.0315 h -0.39558 q -0.0584,0 -0.0832,0.0292 -0.0247,0.0292 -0.0292,0.0832 h -0.0584 z" />
    <path
       d="m 168.80068,127.87423 v -0.0584 c 0.0509,0 0.0862,-0.007 0.10563,-0.0202 0.0195,-0.0135 0.0292,-0.0367 0.0292,-0.0697 v -1.21821 c 0,-0.042 -0.01,-0.0689 -0.0292,-0.0809 -0.0195,-0.012 -0.0547,-0.018 -0.10563,-0.018 v -0.0584 h 0.49447 c 0.15284,0 0.27871,0.0262 0.3776,0.0787 0.0989,0.0524 0.14835,0.16258 0.14835,0.33041 0,0.15283 -0.039,0.25997 -0.11688,0.3214 -0.0742,0.0584 -0.13785,0.0877 -0.19105,0.0877 h -0.007 l 0.44503,0.5664 c 0.03,0.027 0.0554,0.0464 0.0764,0.0584 0.021,0.012 0.0539,0.0195 0.0989,0.0225 v 0.0584 h -0.48099 v -0.0584 c 0.042,0 0.0697,-0.008 0.0832,-0.0225 0.005,-0.006 0.008,-0.0131 0.008,-0.0213 0,-0.0127 -0.006,-0.0281 -0.0191,-0.0461 l -0.43604,-0.55741 h -0.12137 v 0.55741 c 0,0.033 0.01,0.0562 0.0292,0.0697 0.0195,0.0135 0.0547,0.0202 0.10564,0.0202 v 0.0584 z m 0.35962,-0.81813 h 0.19779 c 0.0869,0 0.14759,-0.024 0.18205,-0.0719 0.0345,-0.048 0.0517,-0.13186 0.0517,-0.25173 0,-0.11088 -0.0217,-0.18356 -0.0652,-0.21802 -0.0435,-0.0345 -0.11613,-0.0517 -0.21802,-0.0517 h -0.14834 z"
       style="font-style:normal;font-variant:normal;font-weight:normal;font-stretch:normal;font-size:medium;line-height:1.25;font-family:'Ancient Geek';-inkscape-font-specification:'Ancient Geek';letter-spacing:0px;word-spacing:0px;fill:#831216;fill-opacity:1;stroke:none;stroke-width:0.06164909"
       id="path882"
       inkscape:connector-curvature="0"
       sodipodi:nodetypes="cccsscccssscsccccccccscccscccccscscscc" />
    <path
       inkscape:connector-curvature="0"
       id="path888"
       d="m 164.59524,117.6369 h 12.5 v 12.5 h -12.5 z"
       style="opacity:0;fill:#831216;fill-opacity:1;fill-rule:nonzero;stroke:none;stroke-width:0.15690528;stroke-linecap:square;stroke-linejoin:miter;stroke-miterlimit:4;stroke-dasharray:none;stroke-opacity:1;paint-order:normal" />
  </g>
</svg>
