<?xml version="1.0" encoding="UTF-8" standalone="no"?>
<!-- Created with Inkscape (http://www.inkscape.org/) -->

<svg
   xmlns:dc="http://purl.org/dc/elements/1.1/"
   xmlns:cc="http://creativecommons.org/ns#"
   xmlns:rdf="http://www.w3.org/1999/02/22-rdf-syntax-ns#"
   xmlns:svg="http://www.w3.org/2000/svg"
   xmlns="http://www.w3.org/2000/svg"
   xmlns:sodipodi="http://sodipodi.sourceforge.net/DTD/sodipodi-0.dtd"
   xmlns:inkscape="http://www.inkscape.org/namespaces/inkscape"
   width="12.5mm"
   height="12.5mm"
   viewBox="0 0 12.5 12.5"
   version="1.1"
   id="svg915"
   inkscape:version="0.92.3 (unknown)"
   sodipodi:docname="argoT.svg">
  <defs
     id="defs909" />
  <sodipodi:namedview
     id="base"
     pagecolor="#ffffff"
     bordercolor="#666666"
     borderopacity="1.0"
     inkscape:pageopacity="0.0"
     inkscape:pageshadow="2"
     inkscape:zoom="0.35"
     inkscape:cx="-752.09224"
     inkscape:cy="-70.663685"
     inkscape:document-units="mm"
     inkscape:current-layer="layer1"
     showgrid="false"
     inkscape:window-width="1366"
     inkscape:window-height="725"
     inkscape:window-x="0"
     inkscape:window-y="0"
     inkscape:window-maximized="1" />
  <metadata
     id="metadata912">
    <rdf:RDF>
      <cc:Work
         rdf:about="">
        <dc:format>image/svg+xml</dc:format>
        <dc:type
           rdf:resource="http://purl.org/dc/dcmitype/StillImage" />
        <dc:title></dc:title>
      </cc:Work>
    </rdf:RDF>
  </metadata>
  <g
     inkscape:label="Layer 1"
     inkscape:groupmode="layer"
     id="layer1"
     transform="translate(-164.59524,-117.6369)">
    <g
       inkscape:export-ydpi="520.19202"
       inkscape:export-xdpi="520.19202"
       inkscape:export-filename="/home/iason/argo-256T.png"
       transform="matrix(0.25,0,0,0.25,133.31857,219.63096)"
       id="g890">
      <g
         id="g886"
         transform="matrix(1.0646533,0,0,1.0646533,43.414874,13.681044)">
        <path
           inkscape:connector-curvature="0"
           id="path874"
           style="font-style:normal;font-variant:normal;font-weight:normal;font-stretch:normal;font-size:medium;line-height:1.25;font-family:'Ancient Geek';-inkscape-font-specification:'Ancient Geek';letter-spacing:0px;word-spacing:0px;fill:#831216;fill-opacity:1;stroke:none;stroke-width:1.65146577"
           d="m 76.730896,-352.15826 23.481874,-40.82236 23.48177,40.82236 z m 6.38231,-3.01056 h 30.466104 l -15.172845,-26.4923 z" />
        <g
           id="g884"
           transform="matrix(0.87541906,0,0,0.87541906,164.4771,-155.09003)">
          <path
             d="m -86.83413,-231.31622 h -1.736328 v -0.25081 q 0.347266,0 0.501606,-0.1254 0.15434,-0.1254 0.270095,-0.49196 l 1.929254,-5.672 h 0.771701 l 1.929253,5.672 q 0.09646,0.30868 0.241157,0.46302 0.144694,0.15434 0.530545,0.15434 v 0.25081 h -2.218642 v -0.25081 q 0.385851,0 0.482314,-0.15434 0.04823,-0.0772 0.04823,-0.19292 0,-0.11576 -0.04823,-0.2701 l -1.581988,-4.84242 -1.60128,4.84242 q -0.0627,0.18328 -0.0627,0.30868 0,0.11094 0.05305,0.17364 0.106109,0.13504 0.49196,0.13504 z"
             style="font-style:normal;font-variant:normal;font-weight:normal;font-stretch:normal;font-size:medium;line-height:1.25;font-family:'Ancient Geek';-inkscape-font-specification:'Ancient Geek';letter-spacing:0px;word-spacing:0px;fill:#831216;fill-opacity:1;stroke:none;stroke-width:0.26458332"
             id="path876"
             inkscape:connector-curvature="0" />
          <path
             d="m -75.895263,-234.57666 q 0,-1.09968 0.636653,-2.11253 0.636654,-1.01286 1.871376,-1.1672 0.207395,-0.01 0.385851,-0.01 0.487136,0 0.771701,0.0772 0.385851,0.10611 0.617361,0.22187 0.101286,0.0579 0.16881,0.0579 0.04341,0 0.07235,-0.0289 0.05305,-0.053 0.05305,-0.21221 0,-0.0482 -0.0048,-0.10611 h 0.30868 l 0.482314,1.69774 h -0.289388 q -0.578776,-0.84887 -1.167198,-1.09003 -0.395497,-0.16398 -0.921219,-0.16398 -0.255626,0 -0.535368,0.0386 -0.868164,0.21222 -1.234722,1.23472 -0.279742,0.77653 -0.279742,1.44212 0,0.21222 0.02894,0.40997 0.09646,1.09967 0.501606,1.75562 0.405143,0.65594 1.331185,0.73311 0.868164,0 1.205783,-0.54983 0.33762,-0.54984 0.33762,-1.22508 0,-0.21222 -0.125402,-0.29903 -0.125401,-0.0868 -0.453374,-0.0868 v -0.2508 h 1.543402 v 2.89388 q -0.270095,0 -0.453374,-0.1447 -0.183279,-0.14469 -0.26045,-0.41479 -0.347265,0.30868 -0.839225,0.44373 -0.429259,0.11576 -1.056266,0.12058 -0.09164,0 -0.188102,-0.005 -1.061089,0 -1.784559,-0.83923 -0.72347,-0.83922 -0.72347,-2.42121 z"
             style="font-style:normal;font-variant:normal;font-weight:normal;font-stretch:normal;font-size:medium;line-height:1.25;font-family:'Ancient Geek';-inkscape-font-specification:'Ancient Geek';letter-spacing:0px;word-spacing:0px;fill:#831216;fill-opacity:1;stroke:none;stroke-width:0.26458332"
             id="path878"
             inkscape:connector-curvature="0" />
          <path
             d="m -66.364752,-237.85639 q 1.345654,0 2.31028,0.9598 0.96945,0.95981 0.96945,2.28134 0,1.32154 -0.96945,2.31028 -0.964626,0.98875 -2.31028,0.98875 -1.379417,0 -2.319928,-0.98875 -0.940511,-0.98874 -0.940511,-2.31028 0,-1.36494 0.940511,-2.30063 0.940511,-0.94051 2.319928,-0.94051 z m -0.192926,0.48231 q -0.868164,0.0965 -1.52411,0.87781 -0.588422,0.69936 -0.588422,1.83762 0,0.13504 0.0096,0.27491 0.09646,1.06109 0.762055,1.8135 0.665593,0.75241 1.726682,0.7717 1.041797,-0.0772 1.60128,-0.82958 0.525722,-0.70417 0.525722,-1.96301 0,-0.0868 -0.0048,-0.17846 -0.09646,-1.08038 -0.790994,-1.86173 -0.66077,-0.74276 -1.620573,-0.74276 -0.04823,0 -0.09646,0 z m -1.389062,1.8135 h 0.250803 q 0,0.23151 0.115755,0.35691 0.115755,0.1254 0.366558,0.1254 h 1.697743 q 0.270096,-0.0193 0.376204,-0.1254 0.106109,-0.10611 0.106109,-0.35691 h 0.250803 v 1.92925 h -0.250803 q 0,-0.21222 -0.115755,-0.34726 -0.115755,-0.13505 -0.366558,-0.13505 h -1.697743 q -0.250803,0 -0.356912,0.1254 -0.106109,0.1254 -0.125401,0.35691 h -0.250803 z"
             style="font-style:normal;font-variant:normal;font-weight:normal;font-stretch:normal;font-size:medium;line-height:1.25;font-family:'Ancient Geek';-inkscape-font-specification:'Ancient Geek';letter-spacing:0px;word-spacing:0px;fill:#831216;fill-opacity:1;stroke:none;stroke-width:0.26458332"
             id="path880"
             inkscape:connector-curvature="0" />
          <path
             sodipodi:nodetypes="cccsscccssscsccccccccscccscccccscscscc"
             inkscape:connector-curvature="0"
             id="path882"
             style="font-style:normal;font-variant:normal;font-weight:normal;font-stretch:normal;font-size:medium;line-height:1.25;font-family:'Ancient Geek';-inkscape-font-specification:'Ancient Geek';letter-spacing:0px;word-spacing:0px;fill:#831216;fill-opacity:1;stroke:none;stroke-width:0.26458332"
             d="m -82.184629,-231.31622 v -0.25081 c 0.218649,0 0.369774,-0.0289 0.453375,-0.0868 0.0836,-0.0579 0.125401,-0.15755 0.125401,-0.29904 v -5.22827 c 0,-0.18007 -0.0418,-0.29582 -0.125401,-0.34727 -0.0836,-0.0515 -0.234726,-0.0772 -0.453375,-0.0772 v -0.2508 h 2.122179 c 0.655946,0 1.196137,0.11254 1.620572,0.33762 0.424436,0.22508 0.636654,0.69775 0.636654,1.418 0,0.65595 -0.167202,1.11575 -0.501606,1.37941 -0.318327,0.25081 -0.591637,0.37621 -0.819932,0.37621 h -0.02894 l 1.909961,2.43086 c 0.128617,0.11575 0.237941,0.19935 0.327973,0.2508 0.09003,0.0515 0.23151,0.0836 0.424435,0.0965 v 0.25081 h -2.064301 v -0.25081 c 0.180064,0 0.299035,-0.0322 0.356912,-0.0965 0.02251,-0.0257 0.03376,-0.0563 0.03376,-0.0916 0,-0.0547 -0.02733,-0.12058 -0.08199,-0.19775 l -1.871376,-2.39227 h -0.520898 v 2.39227 c 0,0.14148 0.0418,0.24116 0.125401,0.29904 0.0836,0.0579 0.234726,0.0868 0.453375,0.0868 v 0.25081 z m 1.543403,-3.51124 h 0.848871 c 0.372989,0 0.633439,-0.10289 0.781348,-0.30868 0.147909,-0.20579 0.221864,-0.56592 0.221864,-1.08039 0,-0.47588 -0.09325,-0.78777 -0.279742,-0.93568 -0.186495,-0.14791 -0.498391,-0.22187 -0.935688,-0.22187 h -0.636653 z" />
        </g>
      </g>
      <path
         style="opacity:0;fill:#831216;fill-opacity:1;fill-rule:nonzero;stroke:none;stroke-width:0.62762111;stroke-linecap:square;stroke-linejoin:miter;stroke-miterlimit:4;stroke-dasharray:none;stroke-opacity:1;paint-order:normal"
         d="m 125.10668,-407.97624 h 49.99999 v 50 h -49.99999 z"
         id="path888"
         inkscape:connector-curvature="0" />
    </g>
  </g>
</svg>
